<svg xmlns="http://www.w3.org/2000/svg" xmlns:xlink="http://www.w3.org/1999/xlink" viewBox="0 0 294 122"><defs><style>.a{fill:#fff;stroke:#caced5;stroke-width:0.5px;}.b,.d{fill:#ff4141;}.b{font-size:12px;}.b,.e{font-family:SourceSansPro-Bold, Source Sans Pro;font-weight:700;}.c{fill:#575757;font-size:10px;font-family:SourceSansPro-Light, Source Sans Pro;font-weight:300;}.e{fill:#4d4f5c;font-size:25px;}.f{fill:#43425d;font-size:15px;font-family:SourceSansPro-Regular, Source Sans Pro;}.f,.g{opacity:0.5;}.h{fill:none;}.i{stroke:none;}.j{filter:url(#a);}</style><filter id="a" x="0" y="0" width="294" height="122" filterUnits="userSpaceOnUse"><feOffset dy="2" input="SourceAlpha"/><feGaussianBlur stdDeviation="3" result="b"/><feFlood flood-opacity="0.039"/><feComposite operator="in" in2="b"/><feComposite in="SourceGraphic"/></filter></defs><g transform="translate(-13088 -3342)"><g class="j" transform="matrix(1, 0, 0, 1, 13088, 3342)"><g class="a" transform="translate(9 7)"><rect class="i" width="276" height="104" rx="2"/><rect class="h" x="0.25" y="0.25" width="275.5" height="103.5" rx="1.75"/></g></g><g transform="translate(13113 3423)"><text class="b" transform="translate(12 12)"><tspan x="0" y="0">13.8% </tspan><tspan class="c" y="0">last period in products sold</tspan></text><path class="d" d="M9,9V4A.945.945,0,0,0,8,3H8A.945.945,0,0,0,7,4V9H4l4,4,4-4Z" transform="translate(-4)"/></g><text class="e" transform="translate(13113 3416)"><tspan x="0" y="0">Rp 3,600,000</tspan></text><text class="f" transform="translate(13113 3379)"><tspan x="0" y="0">Sales Turnover</tspan></text><g class="g" transform="translate(12860 2497)"><rect class="h" width="12" height="24" transform="translate(485 867)"/><path d="M0,14a2,2,0,1,1,2,2A2,2,0,0,1,0,14ZM0,8a2,2,0,1,1,2,2A2,2,0,0,1,0,8ZM0,2A2,2,0,1,1,2,4,2,2,0,0,1,0,2Z" transform="translate(489 871)"/></g></g></svg>